<svg width="40" height="40" viewBox="0 0 40 40" fill="none" xmlns="http://www.w3.org/2000/svg">
<path d="M9.16667 3.33325H28.3333C29.4384 3.33325 30.4982 3.77224 31.2796 4.55364C32.061 5.33504 32.5 6.39485 32.5 7.49992V18.8549C30.6008 18.2396 28.5685 18.161 26.6275 18.6279C24.6865 19.0947 22.9122 20.0888 21.5006 21.5005C20.0889 22.9121 19.0948 24.6864 18.6279 26.6274C18.1611 28.5685 18.2397 30.6007 18.855 32.4999H7.5C7.5 32.9419 7.6756 33.3659 7.98816 33.6784C8.30072 33.991 8.72464 34.1666 9.16667 34.1666H19.5533C20.0305 35.081 20.6355 35.9228 21.35 36.6666H9.16667C8.0616 36.6666 7.00179 36.2276 6.22039 35.4462C5.43899 34.6648 5 33.605 5 32.4999V7.49992C5 6.39485 5.43899 5.33504 6.22039 4.55364C7.00179 3.77224 8.0616 3.33325 9.16667 3.33325ZM11.6667 8.33325C11.2246 8.33325 10.8007 8.50885 10.4882 8.82141C10.1756 9.13397 10 9.55789 10 9.99992V11.6666C10 12.1086 10.1756 12.5325 10.4882 12.8451C10.8007 13.1577 11.2246 13.3333 11.6667 13.3333H25C25.442 13.3333 25.8659 13.1577 26.1785 12.8451C26.4911 12.5325 26.6667 12.1086 26.6667 11.6666V9.99992C26.6667 9.55789 26.4911 9.13397 26.1785 8.82141C25.8659 8.50885 25.442 8.33325 25 8.33325H11.6667Z" fill="#A1C5E9"/>
<path d="M38.3333 29.1667C38.3333 26.7355 37.3676 24.4039 35.6485 22.6849C33.9294 20.9658 31.5978 20 29.1667 20C26.7355 20 24.4039 20.9658 22.6849 22.6849C20.9658 24.4039 20 26.7355 20 29.1667C20 31.5978 20.9658 33.9294 22.6849 35.6485C24.4039 37.3676 26.7355 38.3333 29.1667 38.3333C31.5978 38.3333 33.9294 37.3676 35.6485 35.6485C37.3676 33.9294 38.3333 31.5978 38.3333 29.1667ZM28.19 25.1617L32.8667 28.2283C33.0116 28.3213 33.1305 28.4497 33.2121 28.6013C33.2937 28.7529 33.3354 28.9228 33.3333 29.095C33.3335 29.2683 33.2924 29.4391 33.2133 29.5933C33.1387 29.746 33.0248 29.876 32.8833 29.97L28.205 33.1617C28.1236 33.2164 28.035 33.2596 27.9417 33.29C27.725 33.3592 27.4905 33.3455 27.2833 33.2517C27.1639 33.1958 27.0551 33.1196 26.9617 33.0267C26.8714 32.9284 26.7982 32.8157 26.745 32.6933C26.6929 32.5682 26.6663 32.4339 26.6667 32.2983V26.035C26.6658 25.8345 26.7231 25.638 26.8317 25.4693C26.9403 25.3007 27.0954 25.1672 27.2783 25.085C27.4236 25.0169 27.5842 24.988 27.7441 25.0012C27.9041 25.0143 28.0578 25.0691 28.19 25.16V25.1617Z" fill="#A1C5E9"/>
</svg>
