<svg width="40" height="40" viewBox="0 0 40 40" fill="none" xmlns="http://www.w3.org/2000/svg">
<path fill-rule="evenodd" clip-rule="evenodd" d="M5 7.5C5 6.83696 5.26339 6.20107 5.73223 5.73223C6.20107 5.26339 6.83696 5 7.5 5H32.5C33.163 5 33.7989 5.26339 34.2678 5.73223C34.7366 6.20107 35 6.83696 35 7.5V32.5C35 33.163 34.7366 33.7989 34.2678 34.2678C33.7989 34.7366 33.163 35 32.5 35H7.5C6.83696 35 6.20107 34.7366 5.73223 34.2678C5.26339 33.7989 5 33.163 5 32.5V7.5ZM15.8333 16.6667C15.8333 17.3297 15.5699 17.9656 15.1011 18.4344C14.6323 18.9033 13.9964 19.1667 13.3333 19.1667C12.6703 19.1667 12.0344 18.9033 11.5656 18.4344C11.0967 17.9656 10.8333 17.3297 10.8333 16.6667C10.8333 16.0036 11.0967 15.3677 11.5656 14.8989C12.0344 14.4301 12.6703 14.1667 13.3333 14.1667C13.9964 14.1667 14.6323 14.4301 15.1011 14.8989C15.5699 15.3677 15.8333 16.0036 15.8333 16.6667ZM10 23.1058C10 23.0075 10.0392 22.8758 10.2133 22.7008C10.395 22.5175 10.6833 22.3325 11.0625 22.1667C11.8242 21.8333 12.7525 21.6667 13.3333 21.6667C13.9142 21.6667 14.8417 21.8333 15.6042 22.1667C15.9833 22.3317 16.2708 22.5167 16.4533 22.7C16.6283 22.8758 16.6667 23.0075 16.6667 23.1058V25.8333H18.3333V23.1058C18.3333 22.4492 18.025 21.9183 17.6358 21.5258C17.2533 21.1417 16.7608 20.8533 16.2717 20.6392C15.2983 20.2142 14.1425 20 13.3333 20C12.5233 20 11.3683 20.2142 10.395 20.6392C9.90583 20.8533 9.41333 21.1417 9.03083 21.5258C8.64167 21.9183 8.33333 22.4492 8.33333 23.1058V25.8333H10V23.1058ZM23.5467 22.7008C23.3717 22.8758 23.3333 23.0075 23.3333 23.1058V25.8333H21.6667V23.1058C21.6667 22.4492 21.975 21.9183 22.3642 21.5258C22.7467 21.1417 23.2392 20.8533 23.7283 20.6392C24.7017 20.2142 25.8575 20 26.6667 20C27.4758 20 28.6317 20.2142 29.605 20.6392C30.0942 20.8533 30.5867 21.1417 30.9692 21.5258C31.3592 21.9183 31.6667 22.4492 31.6667 23.1058V25.8333H30V23.1058C30 23.0075 29.9608 22.8758 29.7867 22.7008C29.605 22.5175 29.3167 22.3325 28.9375 22.1667C28.1758 21.8333 27.2475 21.6667 26.6667 21.6667C26.0858 21.6667 25.1583 21.8333 24.3958 22.1667C24.0167 22.3317 23.7292 22.5167 23.5467 22.7V22.7008ZM26.6667 19.1667C27.3297 19.1667 27.9656 18.9033 28.4344 18.4344C28.9033 17.9656 29.1667 17.3297 29.1667 16.6667C29.1667 16.0036 28.9033 15.3677 28.4344 14.8989C27.9656 14.4301 27.3297 14.1667 26.6667 14.1667C26.0036 14.1667 25.3677 14.4301 24.8989 14.8989C24.4301 15.3677 24.1667 16.0036 24.1667 16.6667C24.1667 17.3297 24.4301 17.9656 24.8989 18.4344C25.3677 18.9033 26.0036 19.1667 26.6667 19.1667ZM22.5 15C22.5 15.663 22.2366 16.2989 21.7678 16.7678C21.2989 17.2366 20.663 17.5 20 17.5C19.337 17.5 18.7011 17.2366 18.2322 16.7678C17.7634 16.2989 17.5 15.663 17.5 15C17.5 14.337 17.7634 13.7011 18.2322 13.2322C18.7011 12.7634 19.337 12.5 20 12.5C20.663 12.5 21.2989 12.7634 21.7678 13.2322C22.2366 13.7011 22.5 14.337 22.5 15ZM18.5383 20.9717C18.5967 20.9058 18.6783 20.8525 18.9142 20.83C19.04 20.8175 19.1875 20.8158 19.3758 20.82L19.5442 20.8242C19.6858 20.8283 19.8467 20.8333 20 20.8333C20.1533 20.8333 20.3142 20.8283 20.4558 20.825L20.6242 20.82C20.8125 20.8158 20.96 20.8167 21.0858 20.8292C21.3217 20.8525 21.4025 20.9058 21.4617 20.9717L22.705 19.8617C22.2675 19.3717 21.7217 19.2167 21.2483 19.17C20.9617 19.1425 20.6067 19.1525 20.315 19.16C20.1967 19.1633 20.0883 19.1667 20 19.1667C19.9117 19.1667 19.8033 19.1633 19.685 19.16C19.3933 19.1517 19.0383 19.1433 18.7517 19.1708C18.2783 19.2167 17.7325 19.3717 17.295 19.8617L18.5383 20.9717Z" fill="#A1C5E9"/>
</svg>
