<svg width="40" height="40" viewBox="0 0 40 40" fill="none" xmlns="http://www.w3.org/2000/svg">
<path d="M28.75 0H11.25C9.1875 0 7.5 1.6875 7.5 3.75V36.25C7.5 38.3125 9.1875 40 11.25 40H28.75C30.8125 40 32.5 38.3125 32.5 36.25V3.75C32.5 1.6875 30.8125 0 28.75 0ZM15 1.875H25V3.125H15V1.875ZM20 37.5C19.337 37.5 18.7011 37.2366 18.2322 36.7678C17.7634 36.2989 17.5 35.663 17.5 35C17.5 34.337 17.7634 33.7011 18.2322 33.2322C18.7011 32.7634 19.337 32.5 20 32.5C20.663 32.5 21.2989 32.7634 21.7678 33.2322C22.2366 33.7011 22.5 34.337 22.5 35C22.5 35.663 22.2366 36.2989 21.7678 36.7678C21.2989 37.2366 20.663 37.5 20 37.5ZM30 30H10V5H30V30Z" fill="#A1C5E9"/>
</svg>
