<svg width="40" height="40" viewBox="0 0 40 40" fill="none" xmlns="http://www.w3.org/2000/svg">
<path d="M27.0667 19.1834L29.6833 16.5668L23.4333 10.3168L20.8167 12.9334L13.9167 6.05011C12.6167 4.75011 10.5 4.75011 9.2 6.05011L6.03333 9.21677C4.73333 10.5168 4.73333 12.6334 6.03333 13.9334L12.9167 20.8168L5 28.7501V35.0001H11.25L19.1833 27.0668L26.0667 33.9501C27.65 35.5334 29.7833 34.9501 30.7833 33.9501L33.95 30.7834C35.25 29.4834 35.25 27.3668 33.95 26.0668L27.0667 19.1834ZM15.3 18.4501L8.4 11.5668L11.55 8.4001L13.6667 10.5168L11.7 12.5001L14.05 14.8501L16.0333 12.8668L18.45 15.2834L15.3 18.4501ZM28.4333 31.6001L21.55 24.7168L24.7167 21.5501L27.1333 23.9668L25.15 25.9501L27.5 28.3001L29.4833 26.3168L31.6 28.4334L28.4333 31.6001ZM34.5167 11.7334C34.6712 11.5792 34.7938 11.3961 34.8774 11.1945C34.961 10.9929 35.0041 10.7767 35.0041 10.5584C35.0041 10.3402 34.961 10.124 34.8774 9.9224C34.7938 9.72078 34.6712 9.53763 34.5167 9.38344L30.6167 5.48344C29.8333 4.70011 28.75 5.00011 28.2667 5.48344L25.2167 8.53344L31.4667 14.7834L34.5167 11.7334Z" fill="#A1C5E9"/>
</svg>
