<svg width="45" height="21" viewBox="0 0 45 21" fill="none" xmlns="http://www.w3.org/2000/svg">
<path d="M0.644625 5.684V0.532H9.26863V21H3.52863V5.684H0.644625ZM12.0608 10.472C12.0608 7.26133 12.7141 4.732 14.0208 2.884C15.3274 1.036 17.3808 0.111999 20.1808 0.111999C22.9808 0.111999 25.0341 1.036 26.3408 2.884C27.6661 4.732 28.3288 7.26133 28.3288 10.472C28.3288 13.72 27.6754 16.268 26.3688 18.116C25.0621 19.964 22.9994 20.888 20.1808 20.888C17.3621 20.888 15.2994 19.964 13.9928 18.116C12.7048 16.268 12.0608 13.72 12.0608 10.472ZM22.8968 10.472C22.8968 8.792 22.7194 7.51333 22.3648 6.636C22.0101 5.74 21.2821 5.292 20.1808 5.292C19.0794 5.292 18.3514 5.74 17.9968 6.636C17.6421 7.51333 17.4648 8.792 17.4648 10.472C17.4648 12.1893 17.6328 13.496 17.9688 14.392C18.3234 15.2693 19.0608 15.708 20.1808 15.708C21.3008 15.708 22.0288 15.2693 22.3648 14.392C22.7194 13.496 22.8968 12.1893 22.8968 10.472ZM44.7711 13.832H40.2631V18.48H34.9991V13.832H30.4631V8.876H34.9991V4.2H40.2631V8.876H44.7711V13.832Z" fill="#A1C5E9"/>
</svg>
