<svg width="40" height="40" viewBox="0 0 40 40" fill="none" xmlns="http://www.w3.org/2000/svg">
<path d="M18.3333 3.33337L30.4967 7.13337C30.8359 7.23928 31.1324 7.45084 31.3429 7.73719C31.5534 8.02353 31.6668 8.36966 31.6667 8.72504V11.6667H35C35.442 11.6667 35.866 11.8423 36.1785 12.1549C36.4911 12.4674 36.6667 12.8913 36.6667 13.3334V16.6667H15V13.3334C15 12.8913 15.1756 12.4674 15.4882 12.1549C15.8007 11.8423 16.2246 11.6667 16.6667 11.6667H28.3333V9.95004L18.3333 6.82337L8.33333 9.95004V22.29C8.3331 23.3104 8.56708 24.3172 9.01727 25.2329C9.46747 26.1486 10.1218 26.9488 10.93 27.5717L11.245 27.7984L18.3333 32.6334L24.6367 28.3334H16.6667C16.2246 28.3334 15.8007 28.1578 15.4882 27.8452C15.1756 27.5327 15 27.1087 15 26.6667V20H36.6667V26.6667C36.6667 27.1087 36.4911 27.5327 36.1785 27.8452C35.866 28.1578 35.442 28.3334 35 28.3334L29.6333 28.335C28.9883 29.185 28.205 29.935 27.3 30.5517L18.3333 36.6667L9.36667 30.5534C8.02087 29.6358 6.91959 28.4034 6.15857 26.9632C5.39755 25.5231 4.99983 23.9189 5 22.29V8.72504C5.0002 8.36994 5.11381 8.02419 5.32427 7.73818C5.53473 7.45217 5.83104 7.24086 6.17 7.13504L18.3333 3.33337Z" fill="#A1C5E9"/>
</svg>
