<svg width="40" height="40" viewBox="0 0 40 40" fill="none" xmlns="http://www.w3.org/2000/svg">
<path d="M7.32812 8.95312C6.96094 9.03906 7.19531 9.02344 6.89062 9.0625C5.58594 9.34375 6.55469 9.59375 7.32812 8.95312ZM30.2734 9.47656C30.3672 9.41406 30.6953 9.09375 29.6719 8.78125C29.7344 9.10156 29.4609 9.07031 29.4609 9.25C30.2188 9.9375 30.5313 11.1328 31.5 11.3828C31.6875 10.5234 30.6406 10.1016 30.2734 9.47656ZM6.63281 8.70312C6.75 9.39844 7.27344 7.96875 7.28125 7.46094C7.07812 7.57812 6.875 7.69531 6.66406 7.78906C7.15625 8.03906 6.72656 8.30469 6.19531 8.70312C5.11719 10.0469 7.20312 7.65625 6.63281 8.70312ZM20 0C8.95312 0 0 8.95312 0 20C0 31.0391 8.95312 40 20 40C31.0469 40 40 31.0391 40 20C40 8.95312 31.0469 0 20 0ZM20.5312 6.70312L20.625 6.73438C20.25 7.21875 22.5781 8.63281 20.9062 8.75C19.3438 9.19531 21.5625 8.34375 20.3516 8.49219C20.9922 7.60156 19.8437 7.58594 20.5312 6.70312ZM11.0469 7.98438C10.4844 7.51562 8.71875 8.625 9.33594 8.35938C10.8672 7.75781 9.4375 8.42188 9.79688 9.14062C9.46875 9.82031 9.6875 8.46875 8.875 9.27344C8.28906 9.40625 6.85156 10.7344 7.03125 10.3281C6.98438 10.9609 5.32031 11.7109 5.09375 12.7656C4.54688 14.2266 4.96094 12.7109 4.85938 12.1406C4.07812 11.1484 2.65625 13.8203 3.07812 14.875C3.78906 13.625 3.73438 14.7422 3.21875 15.2969C3.74219 16.2578 2.74219 17.5078 3.73438 18.2188C4.17188 18.3203 5.04688 16.75 4.66406 18.3828C4.92969 16.9688 5.39844 18.7188 6.15625 18.3281C6.20313 19.0703 6.66406 18.7266 6.76562 19.625C8.03125 19.5312 9.1875 21.6719 7.67969 22.0781C7.90625 22.0156 8.35156 22.4141 8.86719 22.1094C9.74219 22.8047 12.0469 22.8906 12.1094 24.6094C10.5234 25.3672 11.7188 27.4453 10.3438 28.1875C8.76562 27.9531 9.80469 30.1328 9.14062 29.8828C9.40625 31.4531 7.54688 29.6797 8.26562 30.5469C9.58594 31.3594 7.6875 31.1953 8.28125 31.7891C7.61719 31.6484 8.69531 33.0234 8.875 33.5312C9.82812 35.0781 8.05469 33.1875 7.53125 32.6719C7.03125 31.6719 5.85156 29.7578 5.52344 28.1875C5.33594 25.9062 3.57031 24.375 3.16406 22.1484C2.75781 20.9062 4.28125 18.9141 3.46094 18.2188C2.75 17.6641 3.03906 15.7656 2.61719 14.7656C3.67188 10.1953 7.02344 6.34375 11.0469 4.0625C10.6328 4.36719 13.4141 3.27344 13.0938 3.53906C13.0078 3.73438 14.7188 2.79688 15.75 2.65625C15.6406 2.67188 13.0703 3.59375 13.7812 3.46875C12.6797 4.00781 13.6719 3.70312 14.2188 3.42969C13.125 4.23438 12.2812 4.00781 11.0391 4.71875C9.78906 5.04688 10.0469 6.34375 9.15625 6.99219C9.67969 7.08594 10.9922 5.64062 11.7578 5.13281C13.5156 4.28125 10.8672 6.67969 12.5391 5.64844C11.9766 6.17188 12.0938 7.00781 11.75 7.24219C11.5781 7.19531 12.4297 7.64844 11.0469 7.98438ZM13.7812 4.39062C13.6016 4.63281 13.3516 5.15625 13.2031 4.83594C13 4.9375 12.9219 5.375 12.5391 5.02344C12.7656 4.85938 13 4.46875 12.5547 4.71094C12.7578 4.49219 14.5703 3.875 14.4688 3.64062C14.7891 3.4375 14.7578 3.33594 14.3906 3.46094C14.2031 3.39844 14.8359 2.86719 15.6797 2.79688C15.7969 2.79688 15.8438 2.875 15.6328 2.85156C14.3594 3.24219 14.9062 3.13281 15.7656 2.85156C15.4375 3.03906 15.2109 3.09375 15.1562 3.17969C16.0156 2.86719 15.1094 3.40625 15.3047 3.36719C15.0625 3.49219 15.3438 3.53125 14.875 3.71094C14.9609 3.64062 14.1094 4.21875 14.6172 4.04688C14.125 4.51562 13.9062 4.52344 13.7812 4.39062ZM14.5312 5.50781C14.5469 4.75781 15.625 4.28125 15.4922 4.24219C16.8203 3.61719 15.0312 4.26562 16.0781 3.70312C16.4688 3.66406 17.2969 2.41406 18.4453 2.33594C19.7109 1.95312 19.125 2.35938 20.0625 2L19.875 2.15625C19.7109 2.17969 19.9141 2.46875 19.3203 2.90625C19.2578 3.58594 18.1875 3.27344 18.7188 4C18.375 3.50781 17.8594 3.98437 18.5078 4.03125C17.8125 4.5625 16.1953 4.65625 15.4219 5.53906C14.9219 6.25781 14.4609 6.03125 14.5312 5.50781ZM20.0859 8.00781C19.5547 9.28906 19.0391 7.82031 19.9766 7.58594C20.2109 7.71094 20.3047 7.75 20.0859 8.00781ZM18.0859 5.44531C17.9297 4.86719 18.0547 5.17188 18.9844 4.89844C19.625 5.35938 18.4141 5.66406 18.0859 5.44531ZM32.6328 28.375C31.8984 27.1094 33.5234 25.9375 34.0703 24.875C34 26.1172 33.8438 27.3438 32.6328 28.375ZM35.3984 13.9141C34.6016 13.9766 33.8828 14.1641 33.1641 13.7109C31.5078 11.8984 33.4688 15.7578 34.0156 14.1797C35.9844 14.9297 33.9844 18.1641 32.7422 17.8281C32.0469 16.3281 31.1875 14.6797 29.6719 13.9453C30.8359 15.2344 31.4141 16.8203 32.6641 17.9844C32.75 19.6094 34.3984 17.3906 34.2969 18.6484C34.4531 20.8125 31.8516 22.1094 32.3047 24.2812C33.2734 26.2578 30.4375 26.6172 30.7578 28.3906C29.6172 29.6641 28.3984 31.3828 26.3516 31.1094C26.3516 30.0312 25.8047 29.1172 25.6797 28.0078C24.5703 26.6016 26.8516 25.0938 25.4375 23.625C23.8047 23.2578 25.7734 21.0078 24.0938 21.2188C23.0859 20.2109 21.6094 21.1875 20.1641 21.1953C18.3516 21.3672 16.4844 18.9688 17.2891 17.2734C16.6484 15.5078 19.3203 14.9922 19.3906 13.4375C20.6719 12.3672 22.4922 12.5 24.2266 12.25C24.1016 13.4922 25.4141 13.5 26.4062 13.9141C26.9609 12.5703 28.6875 14.1328 29.8672 13.2812C30.2734 11.2969 28.7188 12.4922 27.8281 11.8594C26.75 10.2812 30.1328 11.0469 29.7812 10.2188C28.4688 10.2109 29.2109 8.60156 28.2812 9.5C29.1172 9.64844 28.1328 10.3047 28.1562 9.55469C26.8906 9.1875 28.1094 10.9922 27.4688 11.1641C26.4922 10.7578 26.9531 11.625 27.0547 11.7578C26.6328 12.6719 26.1172 10.4141 24.9219 10.4766C23.7344 9.39063 24.4531 10.9688 25.4844 11.2266C25.2656 11.2891 25.6094 12.1875 25.3359 11.8047C24.4844 10.6328 22.8672 9.85156 21.9062 11.2891C21.8047 12.6328 19.0703 13.0156 19.5078 11.4453C18.8672 9.82031 21.4922 11.3984 21.25 10.1016C19.5625 8.98438 21.7109 9.34375 22.2812 8.29688C23.5781 8.33594 22.3359 7.23438 22.9453 6.91406C22.8828 8.10938 23.9375 7.88281 24.7734 7.65625C24.5703 6.96875 25.2734 6.99219 24.8438 6.42188C26.7812 5.64844 23.3672 6.78125 24.0547 5.08594C23.2188 4.50781 23.7031 6.35938 24.0547 6.55469C24.0781 7.125 23.5938 7.82812 22.9297 6.63281C21.9609 7.26562 22.0625 5.99219 22 6.125C21.8906 5.63281 22.7344 5.60938 22.7422 4.75C22.6719 4.20312 22.6875 3.91406 23.0781 3.88281C23.1094 3.96094 24.6797 3.98438 25.2344 4.63281C23.7188 4.32812 25.0078 4.88281 25.6875 5.19531C24.9609 4.625 25.9766 5.19531 25.3828 4.54688C25.6172 4.59375 24.7344 3.65625 25.6406 4.47656C25.1484 3.89062 26.6016 4.0625 25.7422 3.625C27 3.97656 26.2578 3.65625 25.5156 3.33594C23.4688 2.11719 29.1328 4.98438 26.8203 3.71094C28.2969 4.03125 23.6641 2.57031 25.7734 3.21094C24.9688 2.85938 25.75 3.05469 26.4766 3.28125C25.1719 2.875 23.2188 2.11719 23.2969 2.08594C23.75 2.11719 24.1953 2.21875 24.625 2.34375C25.9609 2.74219 24.2422 2.25 24.6094 2.25781C29.2031 3.4375 33.2266 6.51562 35.6719 10.5391C36.2422 11.1406 37.7969 15.1172 36.9844 13.3516C37.3516 14.7578 37.4062 16.2734 37.6016 17.7109C37.1953 17.2578 36.7422 15.5859 36.3516 14.6562C36.1875 15.0156 36 14.1484 35.3984 13.9141Z" fill="#A1C5E9"/>
</svg>
