<?xml version="1.0" encoding="utf-8"?><svg xmlns="http://www.w3.org/2000/svg" xmlns:xlink="http://www.w3.org/1999/xlink"><symbol fill="none" viewBox="0 0 45 21" id="10" xmlns="http://www.w3.org/2000/svg"><path d="M.645 5.684V.532h8.624V21h-5.74V5.684H.645zm11.416 4.788c0-3.21.653-5.74 1.96-7.588C15.327 1.036 17.38.112 20.18.112s4.853.924 6.16 2.772c1.325 1.848 1.988 4.377 1.988 7.588 0 3.248-.654 5.796-1.96 7.644-1.307 1.848-3.37 2.772-6.188 2.772-2.819 0-4.882-.924-6.188-2.772-1.288-1.848-1.932-4.396-1.932-7.644zm10.836 0c0-1.68-.178-2.959-.532-3.836-.355-.896-1.083-1.344-2.184-1.344-1.102 0-1.83.448-2.184 1.344-.355.877-.532 2.156-.532 3.836 0 1.717.168 3.024.504 3.92.354.877 1.092 1.316 2.212 1.316s1.848-.439 2.184-1.316c.354-.896.532-2.203.532-3.92zm21.874 3.36h-4.508v4.648H35v-4.648h-4.536V8.876H35V4.2h5.264v4.676h4.508v4.956z" fill="#A1C5E9"/></symbol><symbol fill="none" viewBox="0 0 20 20" id="arrow" xmlns="http://www.w3.org/2000/svg"><g clip-path="url(#bclip0_2:114)"><path d="M0 10.833h14.655l-4.41 4.411 1.178 1.178L17.845 10l-6.422-6.423-1.179 1.179 4.411 4.41H0v1.667z" fill="#A1C5E9"/></g><defs><clipPath id="bclip0_2:114"><path fill="#fff" transform="rotate(-180 10 10)" d="M0 0h20v20H0z"/></clipPath></defs></symbol><symbol fill="none" viewBox="0 0 40 40" id="cart" xmlns="http://www.w3.org/2000/svg"><path d="M15 35.556A2.778 2.778 0 1015 30a2.778 2.778 0 000 5.556zm14.445 0a2.778 2.778 0 100-5.556 2.778 2.778 0 000 5.556zM36.778 7.1a1.11 1.11 0 00-.878-.433H10.233l-.5-1.59A1.111 1.111 0 009 4.357l-4.556-1.4a1.116 1.116 0 10-.655 2.133l3.989 1.22 5.089 16.078-1.811 1.489-.145.144a2.955 2.955 0 00-.089 3.756 3.055 3.055 0 002.511 1.11h18.545a1.111 1.111 0 100-2.221H13.156a.745.745 0 01-.623-1.111l2.678-2.223h17.145a1.111 1.111 0 001.11-.844l3.556-14.445a1.11 1.11 0 00-.244-.944z" fill="#A1C5E9"/></symbol><symbol fill="none" viewBox="0 0 40 40" id="fluent" xmlns="http://www.w3.org/2000/svg"><path d="M9.167 3.333h19.166A4.167 4.167 0 0132.5 7.5v11.355A10.833 10.833 0 0018.855 32.5H7.5a1.667 1.667 0 001.667 1.667h10.386a10.865 10.865 0 001.797 2.5H9.167A4.167 4.167 0 015 32.5v-25a4.167 4.167 0 014.167-4.167zm2.5 5A1.666 1.666 0 0010 10v1.667a1.667 1.667 0 001.667 1.666H25a1.667 1.667 0 001.667-1.666V10A1.667 1.667 0 0025 8.333H11.667z" fill="#A1C5E9"/><path d="M38.333 29.167a9.166 9.166 0 10-18.332 0 9.166 9.166 0 0018.332 0zM28.19 25.162l4.677 3.066a1.015 1.015 0 01.466.867c0 .173-.04.344-.12.498a.956.956 0 01-.33.377l-4.678 3.192c-.081.054-.17.098-.263.128a.919.919 0 01-.659-.038 1.144 1.144 0 01-.321-.225 1.2 1.2 0 01-.217-.334 1.02 1.02 0 01-.078-.395v-6.263a1.036 1.036 0 01.611-.95.92.92 0 01.912.075v.002z" fill="#A1C5E9"/></symbol><symbol fill="none" viewBox="0 0 40 40" id="healthicons" xmlns="http://www.w3.org/2000/svg"><path fill-rule="evenodd" clip-rule="evenodd" d="M5 7.5A2.5 2.5 0 017.5 5h25A2.5 2.5 0 0135 7.5v25a2.5 2.5 0 01-2.5 2.5h-25A2.5 2.5 0 015 32.5v-25zm10.833 9.167a2.5 2.5 0 11-5 0 2.5 2.5 0 015 0zM10 23.106c0-.099.04-.23.213-.405.182-.184.47-.369.85-.534.761-.334 1.69-.5 2.27-.5.581 0 1.509.166 2.271.5.38.165.667.35.85.533.174.176.213.308.213.406v2.727h1.666v-2.727c0-.657-.308-1.188-.697-1.58-.383-.384-.875-.673-1.364-.887-.974-.425-2.13-.639-2.939-.639-.81 0-1.965.214-2.938.64-.49.213-.982.502-1.364.886-.39.392-.698.923-.698 1.58v2.727H10v-2.727zm13.547-.405c-.175.175-.214.306-.214.405v2.727h-1.666v-2.727c0-.657.308-1.188.697-1.58.383-.384.875-.673 1.364-.887.974-.425 2.13-.639 2.939-.639.809 0 1.965.214 2.938.64.49.213.982.502 1.364.886.39.392.698.923.698 1.58v2.727H30v-2.727c0-.099-.04-.23-.213-.405-.182-.184-.47-.369-.85-.534-.761-.334-1.69-.5-2.27-.5-.581 0-1.509.166-2.271.5-.38.165-.667.35-.85.533zm3.12-3.534a2.5 2.5 0 100-5 2.5 2.5 0 000 5zM22.5 15a2.5 2.5 0 11-5 0 2.5 2.5 0 015 0zm-3.962 5.972c.059-.066.14-.12.376-.142a3.9 3.9 0 01.462-.01l.168.004c.142.004.303.01.456.01.153 0 .314-.006.456-.009l.168-.005a3.84 3.84 0 01.462.01c.236.023.317.076.376.142l1.243-1.11c-.438-.49-.983-.645-1.457-.692-.286-.028-.641-.018-.933-.01-.118.003-.227.007-.315.007s-.197-.004-.315-.007a8.105 8.105 0 00-.933.01c-.474.047-1.02.202-1.457.692l1.243 1.11z" fill="#A1C5E9"/></symbol><symbol fill="none" viewBox="0 0 40 40" id="ic_round" xmlns="http://www.w3.org/2000/svg"><path d="M35 5H5a3.343 3.343 0 00-3.333 3.333v23.334C1.667 33.5 3.167 35 5 35h30c1.833 0 3.333-1.5 3.333-3.333V8.333C38.333 6.5 36.833 5 35 5zm-1.667 26.667H21.667C20.75 31.667 20 30.917 20 30v-6.667c0-.916.75-1.666 1.667-1.666h11.666c.917 0 1.667.75 1.667 1.666V30c0 .917-.75 1.667-1.667 1.667z" fill="#A1C5E9"/></symbol><symbol fill="none" viewBox="0 0 40 40" id="mobile" xmlns="http://www.w3.org/2000/svg"><path d="M28.75 0h-17.5A3.761 3.761 0 007.5 3.75v32.5A3.761 3.761 0 0011.25 40h17.5a3.761 3.761 0 003.75-3.75V3.75A3.761 3.761 0 0028.75 0zM15 1.875h10v1.25H15v-1.25zM20 37.5a2.5 2.5 0 110-5 2.5 2.5 0 010 5zM30 30H10V5h20v25z" fill="#A1C5E9"/></symbol><symbol fill="none" viewBox="0 0 40 40" id="payments" xmlns="http://www.w3.org/2000/svg"><path d="M31.667 23.333V10c0-1.833-1.5-3.333-3.334-3.333H5A3.343 3.343 0 001.667 10v13.333c0 1.834 1.5 3.334 3.333 3.334h23.333c1.834 0 3.334-1.5 3.334-3.334zm-15-1.666c-2.767 0-5-2.234-5-5 0-2.767 2.233-5 5-5 2.766 0 5 2.233 5 5 0 2.766-2.234 5-5 5zm21.666-10V30c0 1.833-1.5 3.333-3.333 3.333H6.667V30H35V11.667h3.333z" fill="#A1C5E9"/></symbol><symbol fill="none" viewBox="0 0 40 40" id="secure" xmlns="http://www.w3.org/2000/svg"><path d="M18.333 3.333l12.164 3.8a1.667 1.667 0 011.17 1.592v2.942H35a1.666 1.666 0 011.667 1.666v3.334H15v-3.334a1.666 1.666 0 011.667-1.666h11.666V9.95l-10-3.127-10 3.127v12.34a6.667 6.667 0 002.597 5.282l.315.226 7.088 4.835 6.304-4.3h-7.97A1.666 1.666 0 0115 26.667V20h21.667v6.667A1.666 1.666 0 0135 28.333l-5.367.002a9.98 9.98 0 01-2.333 2.217l-8.967 6.115-8.966-6.114A10 10 0 015 22.29V8.725a1.667 1.667 0 011.17-1.59l12.163-3.802z" fill="#A1C5E9"/></symbol><symbol fill="none" viewBox="0 0 40 40" id="services" xmlns="http://www.w3.org/2000/svg"><path d="M27.067 19.183l2.616-2.616-6.25-6.25-2.616 2.616-6.9-6.883a3.34 3.34 0 00-4.717 0L6.033 9.217a3.34 3.34 0 000 4.716l6.884 6.884L5 28.75V35h6.25l7.933-7.933 6.884 6.883c1.583 1.583 3.716 1 4.716 0l3.167-3.167a3.34 3.34 0 000-4.716l-6.883-6.884zM15.3 18.45l-6.9-6.883L11.55 8.4l2.117 2.117L11.7 12.5l2.35 2.35 1.983-1.983 2.417 2.416-3.15 3.167zM28.433 31.6l-6.883-6.883 3.167-3.167 2.416 2.417-1.983 1.983 2.35 2.35 1.983-1.983 2.117 2.116-3.167 3.167zm6.084-19.867a1.66 1.66 0 000-2.35l-3.9-3.9c-.784-.783-1.867-.483-2.35 0l-3.05 3.05 6.25 6.25 3.05-3.05z" fill="#A1C5E9"/></symbol><symbol fill="none" viewBox="0 0 40 40" id="subway" xmlns="http://www.w3.org/2000/svg"><path d="M7.328 8.953c-.367.086-.133.07-.437.11-1.305.28-.336.53.437-.11zm22.945.524c.094-.063.422-.383-.601-.696.062.32-.211.29-.211.469.758.688 1.07 1.883 2.039 2.133.188-.86-.86-1.281-1.227-1.906zm-23.64-.774c.117.695.64-.734.648-1.242a6.768 6.768 0 01-.617.328c.492.25.063.516-.469.914-1.078 1.344 1.008-1.047.438 0zM20 0C8.953 0 0 8.953 0 20c0 11.04 8.953 20 20 20s20-8.96 20-20C40 8.953 31.047 0 20 0zm.531 6.703l.094.031c-.375.485 1.953 1.899.281 2.016-1.562.445.657-.406-.554-.258.64-.89-.508-.906.18-1.789zm-9.484 1.281c-.563-.468-2.328.641-1.711.375 1.531-.601.101.063.46.782-.327.68-.108-.672-.921.132-.586.133-2.023 1.461-1.844 1.055-.047.633-1.71 1.383-1.937 2.438-.547 1.46-.133-.055-.235-.625-.78-.993-2.203 1.68-1.78 2.734.71-1.25.655-.133.14.422.523.96-.477 2.21.515 2.922.438.101 1.313-1.469.93.164.266-1.414.734.336 1.492-.055.047.742.508.399.61 1.297 1.265-.094 2.421 2.047.914 2.453.226-.062.672.336 1.187.031.875.696 3.18.782 3.242 2.5-1.586.758-.39 2.836-1.765 3.578-1.578-.234-.54 1.946-1.203 1.696.265 1.57-1.594-.203-.875.664 1.32.812-.579.648.015 1.242-.664-.14.414 1.234.594 1.742.953 1.547-.82-.343-1.344-.86-.5-1-1.68-2.913-2.008-4.483-.187-2.282-1.953-3.813-2.359-6.04-.406-1.242 1.117-3.234.297-3.93-.711-.554-.422-2.452-.844-3.452 1.055-4.57 4.406-8.422 8.43-10.704-.414.305 2.367-.789 2.047-.523-.086.195 1.625-.742 2.656-.883-.11.016-2.68.938-1.969.813-1.101.539-.11.234.438-.04-1.094.805-1.938.579-3.18 1.29-1.25.328-.992 1.625-1.883 2.273.524.094 1.836-1.351 2.602-1.86 1.758-.85-.89 1.548.781.516-.562.524-.445 1.36-.789 1.594-.172-.047.68.406-.703.742zm2.734-3.593c-.18.242-.43.765-.578.445-.203.101-.281.539-.664.187.227-.164.461-.554.016-.312.203-.219 2.015-.836 1.914-1.07.32-.204.289-.305-.078-.18-.188-.063.445-.594 1.289-.664.117 0 .164.078-.047.055-1.274.39-.727.28.133 0-.329.187-.555.242-.61.328.86-.313-.047.226.149.187-.242.125.039.164-.43.344.086-.07-.766.508-.258.336-.492.469-.71.476-.836.344zm.75 1.117c.016-.75 1.094-1.227.961-1.266 1.328-.625-.46.024.586-.539.39-.039 1.219-1.289 2.367-1.367 1.266-.383.68.023 1.617-.336l-.187.156c-.164.024.04.313-.555.75-.062.68-1.133.367-.601 1.094-.344-.492-.86-.016-.211.031-.695.532-2.313.625-3.086 1.508-.5.719-.961.492-.89-.031zm5.555 2.5c-.531 1.281-1.047-.188-.11-.422.235.125.329.164.11.422zm-2-2.563c-.156-.578-.031-.273.898-.547.641.461-.57.766-.898.547zm14.547 22.93c-.735-1.266.89-2.438 1.437-3.5-.07 1.242-.226 2.469-1.437 3.5zm2.765-14.46c-.796.062-1.515.25-2.234-.204-1.656-1.813.305 2.047.852.469 1.968.75-.032 3.984-1.274 3.648-.695-1.5-1.554-3.148-3.07-3.883 1.164 1.29 1.742 2.875 2.992 4.04.086 1.624 1.734-.594 1.633.663.156 2.165-2.445 3.461-1.992 5.633.968 1.977-1.867 2.336-1.547 4.11-1.14 1.273-2.36 2.992-4.406 2.718 0-1.078-.547-1.992-.672-3.101-1.11-1.406 1.172-2.914-.242-4.383-1.633-.367.335-2.617-1.344-2.406-1.008-1.008-2.485-.032-3.93-.024-1.812.172-3.68-2.226-2.875-3.922-.64-1.765 2.031-2.28 2.102-3.835 1.28-1.07 3.101-.938 4.836-1.188-.125 1.242 1.187 1.25 2.18 1.664.554-1.344 2.28.219 3.46-.633.406-1.984-1.148-.789-2.039-1.422-1.078-1.578 2.305-.812 1.953-1.64-1.312-.008-.57-1.617-1.5-.719.836.148-.148.805-.125.055-1.265-.367-.047 1.437-.687 1.61-.977-.407-.516.46-.414.593-.422.914-.938-1.344-2.133-1.281-1.188-1.086-.469.492.562.75-.218.062.125.96-.148.578-.852-1.172-2.469-1.953-3.43-.516-.101 1.344-2.836 1.727-2.398.156-.64-1.625 1.984-.047 1.742-1.343-1.688-1.118.46-.758 1.031-1.805 1.297.039.055-1.063.664-1.383-.062 1.195.992.969 1.828.742-.203-.687.5-.664.07-1.234 1.938-.774-1.476.36-.788-1.336-.836-.578-.352 1.273 0 1.469.023.57-.461 1.273-1.125.078-.97.633-.867-.64-.93-.508-.11-.492.734-.516.742-1.375-.07-.547-.055-.836.336-.867.031.078 1.602.101 2.156.75-1.515-.305-.226.25.453.562-.726-.57.29 0-.304-.648.234.047-.649-.89.258-.07-.493-.586.96-.415.101-.852 1.258.352.516.031-.226-.29-2.047-1.218 3.617 1.65 1.304.376 1.477.32-3.156-1.14-1.047-.5-.804-.352-.023-.156.704.07-1.305-.406-3.258-1.164-3.18-1.195a6.33 6.33 0 011.328.258c1.336.398-.383-.094-.016-.086 4.594 1.18 8.618 4.258 11.063 8.281.57.602 2.125 4.578 1.312 2.813.368 1.406.422 2.921.618 4.359-.407-.453-.86-2.125-1.25-3.055-.164.36-.352-.508-.954-.742z" fill="#A1C5E9"/></symbol></svg>